<?xml version="1.0" encoding="utf-8"?>
<!-- Generator: Adobe Illustrator 26.0.2, SVG Export Plug-In . SVG Version: 6.00 Build 0)  -->
<svg version="1.1" id="Layer_1" xmlns="http://www.w3.org/2000/svg" xmlns:xlink="http://www.w3.org/1999/xlink" x="0px" y="0px"
	 viewBox="0 0 2111 721" style="enable-background:new 0 0 2111 721;" xml:space="preserve">
<style type="text/css">
	.st0{fill:#001D23;}
	.st1{fill:#38F998;}
	.st2{font-family:'Prestage';}
	.st3{font-size:868.694px;}
	.st4{letter-spacing:-34;}
	.st5{font-size:152.9355px;}
	.st6{letter-spacing:-1;}
</style>
<g>
	<g>
		<g>
			<path class="st0" d="M196.06,62.4h57.8v603.88h-57.8L73.56,256.5v409.78h-57.8V62.4h57.8l122.5,409.78V62.4z"/>
			<path class="st0" d="M535.1,63.26v57.8H391.03v214.81h116.46v57.8H391.03v214.81H535.1v57.8H332.37V62.4L535.1,63.26z"/>
			<path class="st0" d="M764.57,62.4h57.8v507.26c0,53.49-43.13,96.62-96.62,96.62h-15.53c-53.49,0-96.62-43.13-96.62-96.62V62.4
				h57.8v507.26c0,21.57,17.25,38.82,38.82,38.82h15.53c21.57,0,38.82-17.25,38.82-38.82V62.4z"/>
			<path class="st0" d="M1012.15,61.54c53.49,0,96.62,43.13,96.62,96.62v205.32c0,51.76-39.68,94.03-90.58,97.48l90.58,205.32h-64.7
				L957.8,468.73v197.55H900V62.4h112.15V61.54z M1050.97,158.16c0-21.57-17.25-38.82-38.82-38.82H957.8V402.3h54.35
				c21.57,0,38.82-17.25,38.82-38.82V158.16z"/>
			<path class="st0" d="M2023.2,62.4h57.8v603.88h-57.8L1900.7,256.5v409.78h-57.8V62.4h57.8l122.5,409.78V62.4z"/>
		</g>
	</g>
	<g>
		<path class="st1" d="M1669.56,720.82H1281.7c-60.78,0-110.06-49.28-110.06-110.06V110.5c0-60.78,49.28-110.06,110.06-110.06
			h387.86c60.78,0,110.06,49.28,110.06,110.06v500.27C1779.62,671.55,1730.34,720.82,1669.56,720.82z"/>
		<g>
			<text transform="matrix(1 0 0 1 1195.3838 662.3818)" class="st0 st2 st3 st4">OO</text>
		</g>
		<rect x="1180.2" y="290" class="st1" width="592.8" height="161.58"/>
		<g>
			<text transform="matrix(1 0 0 1 1238.6855 421.4863)" class="st0 st2 st5 st6">Informatic</text>
		</g>
	</g>
</g>
</svg>
